{"title":"22 Jump Street 2014 TS Xvid","uid":10669977,"size":1674905600,"categoryP":"video","categoryS":"movies","magnet":"?xt=urn:btih:a0465a0416098524cd874c360bf1b9189960f53b&amp;dn=22+Jump+Street+2014+TS+Xvid+&amp;tr=udp%3A%2F%2Ftracker.openbittorrent.com%3A80&amp;tr=udp%3A%2F%2Fopen.demonii.com%3A1337&amp;tr=udp%3A%2F%2Ftracker.coppersurfer.tk%3A6969&amp;tr=udp%3A%2F%2Fexodus.desync.com%3A6969","seeders":2,"leechers":0,"uploader":"tolkheim","files":1,"time":1406853505,"description":"General\nComplete name: 22.Jump.Street.2014.TS Xvid Ac3 5.1.avi\nFormat: AVI\nFormat/Info: Audio Video Interleave\nFile size: 1.56 GiB\nDuration: 1h 45mn\nOverall bit rate: 2 109 Kbps\nWriting application: VirtualDubMod 1.5.10.2 (build 2540/release)\nWriting library: VirtualDubMod build 2540/release\n\nVideo\nID: 0\nFormat: MPEG-4 Visual\nFormat profile: Advanced Simple@L5\nFormat settings, BVOP: 2\nFormat settings, QPel: Yes\nFormat settings, GMC: No warppoints\nFormat settings, Matrix: Default (MPEG)\nCodec ID: XVID\nCodec ID/Hint: XviD\nDuration: 1h 45mn\nBit rate: 1 650 Kbps\nWidth: 720 pixels\nHeight: 304 pixels\nDisplay aspect ratio: 2.35:1\nFrame rate: 29.970 fps\nColor space: YUV\nChroma subsampling: 4:2:0\nBit depth: 8 bits\nScan type: Progressive\nCompression mode: Lossy\nBits/(Pixel*Frame): 0.251\nStream size: 1.22 GiB (78%)\nWriting library: XviD 1.2.1 (UTC 2008-12-04)\n\nAudio\nID: 1\nFormat: AC-3\nFormat/Info: Audio Coding 3\nMode extension: CM (complete main)\nCodec ID: 2000\nDuration: 1h 45mn\nBit rate mode: Constant\nBit rate: 448 Kbps\nChannel(s): 6 channels\nChannel positions: Front: L C R, Side: L R, LFE\nSampling rate: 48.0 KHz\nBit depth: 16 bits\nCompression mode: Lossy\nDelay relative to video: 20ms\nStream size: 339 MiB (21%)\nAlignment: Split accross interleaves\nInterleave, duration: 33 ms (1.00 video frame)\nInterleave, preload duration: 500 ms","torrent":{"xt":"urn:btih:a0465a0416098524cd874c360bf1b9189960f53b","amp;dn":"22+Jump+Street+2014+TS+Xvid+","amp;tr":["udp%3A%2F%2Ftracker.openbittorrent.com%3A80","udp%3A%2F%2Fopen.demonii.com%3A1337","udp%3A%2F%2Ftracker.coppersurfer.tk%3A6969","udp%3A%2F%2Fexodus.desync.com%3A6969"],"infoHash":"a0465a0416098524cd874c360bf1b9189960f53b","infoHashBuffer":{"type":"Buffer","data":[160,70,90,4,22,9,133,36,205,135,76,54,11,241,185,24,153,96,245,59]},"announce":[],"urlList":[]}}